<svg width="24" height="24" xmlns="http://www.w3.org/2000/svg">

 <g>
  <title>background</title>
  <rect fill="none" id="canvas_background" height="402" width="582" y="-1" x="-1"/>
 </g>
 <g>
  <title>Layer 1</title>
  <path id="svg_1" fill="none" d="m0,0l24,0l0,24l-24,0l0,-24z"/>
  <path fill="#f7aa4e" id="svg_2" d="m16.5,12c1.38,0 2.49,-1.12 2.49,-2.5s-1.11,-2.5 -2.49,-2.5c-1.38,0 -2.5,1.12 -2.5,2.5s1.12,2.5 2.5,2.5zm-7.5,-1c1.66,0 2.99,-1.34 2.99,-3s-1.33,-3 -2.99,-3c-1.66,0 -3,1.34 -3,3s1.34,3 3,3zm7.5,3c-1.83,0 -5.5,0.92 -5.5,2.75l0,2.25l11,0l0,-2.25c0,-1.83 -3.67,-2.75 -5.5,-2.75zm-7.5,-1c-2.33,0 -7,1.17 -7,3.5l0,2.5l7,0l0,-2.25c0,-0.85 0.33,-2.34 2.37,-3.47c-0.87,-0.18 -1.71,-0.28 -2.37,-0.28z"/>
 </g>
</svg>