<?xml version="1.0" encoding="iso-8859-1"?>
<!-- Generator: Adobe Illustrator 19.0.0, SVG Export Plug-In . SVG Version: 6.00 Build 0)  -->
<svg xmlns="http://www.w3.org/2000/svg" xmlns:xlink="http://www.w3.org/1999/xlink" version="1.1" id="Capa_1" x="0px" y="0px" viewBox="0 0 512 512" style="enable-background:new 0 0 512 512;" xml:space="preserve" width="512px" height="512px">
<g>
	<g>
		<path d="M214.063,160.278c-96.971,0-175.861,78.891-175.861,175.861S117.092,512,214.063,512s175.861-78.891,175.861-175.861    S311.034,160.278,214.063,160.278z" fill="#ffe030"/>
	</g>
</g>
<g>
	<g>
		<path d="M466.121,28.892L444.908,7.68l-18.54,18.54V0h-30v26.219L377.829,7.68l-21.213,21.213l18.54,18.54h-26.219v30h26.219    l-18.54,18.54l21.213,21.213l18.539-18.539v2.531c0,18.928-15.398,34.326-34.326,34.326s-34.326-15.398-34.326-34.326V92.62    c0-35.47-28.856-64.326-64.326-64.326c-35.47,0-64.327,28.856-64.327,64.326v6.821h-27.248v35.204    c13.641-2.857,27.771-4.367,42.248-4.367s28.607,1.51,42.248,4.367V99.441h-27.248V92.62c0-18.928,15.398-34.326,34.326-34.326    c18.928,0,34.326,15.398,34.326,34.326v8.557c0,35.47,28.856,64.326,64.326,64.326c35.47,0,64.326-28.856,64.326-64.326v-2.532    l18.54,18.54l21.213-21.213l-18.54-18.54h26.219v-30h-26.218L466.121,28.892z" fill="#ffe030"/>
	</g>
</g>
<g>
</g>
<g>
</g>
<g>
</g>
<g>
</g>
<g>
</g>
<g>
</g>
<g>
</g>
<g>
</g>
<g>
</g>
<g>
</g>
<g>
</g>
<g>
</g>
<g>
</g>
<g>
</g>
<g>
</g>
</svg>
