<?xml version="1.0" encoding="utf-8"?>
<!-- Generator: Adobe Illustrator 16.0.0, SVG Export Plug-In . SVG Version: 6.00 Build 0)  -->
<!DOCTYPE svg PUBLIC "-//W3C//DTD SVG 1.1//EN" "http://www.w3.org/Graphics/SVG/1.1/DTD/svg11.dtd">
<svg version="1.1" id="Layer_1" xmlns="http://www.w3.org/2000/svg" xmlns:xlink="http://www.w3.org/1999/xlink" x="0px" y="0px"
	 width="144.24px" height="168.319px" viewBox="0 0 144.24 168.319" enable-background="new 0 0 144.24 168.319"
	 xml:space="preserve">
<g>
	<path fill="none" stroke="#003DA6" stroke-width="0.24" stroke-miterlimit="3.864" d="M72.126,168.183
		C0.667,130.581,0.12,79.62,0.12,0.141l144-0.021C144.12,79.648,143.885,130.581,72.126,168.183z"/>
	<path fill="#003DA6" d="M139.248,5.813V5.378h-0.425L5.252,5.399H4.821v0.414l-0.007,6.459
		c-0.049,29.815-0.084,57.996,8.281,83.831c4.524,13.914,11.043,25.771,19.973,36.274c10,11.752,22.725,21.504,38.921,29.815
		l0.193,0.112l0.193-0.112c16.126-8.374,28.777-18.147,38.721-29.913c8.891-10.511,15.399-22.403,19.875-36.331
		c8.34-25.934,8.313-54.388,8.277-84.541V5.813z"/>
	<path fill="#FFFFFF" d="M43.679,27.296c-0.762-0.386-1.962-0.709-3.57-0.976c1.186-0.358,1.983-0.667,2.422-0.926
		c1.042-0.569,1.914-1.383,2.58-2.422c0.667-1.053,1.008-2.19,1.008-3.405c0-1.144-0.302-2.183-0.892-3.089
		c-0.59-0.934-1.542-1.649-2.805-2.134c-1.243-0.464-3.004-0.702-5.248-0.702c-0.604,0-1.892,0.042-3.788,0.141
		c-0.769,0.028-1.818,0.042-3.156,0.042c-1.351,0-2.475-0.007-3.387-0.021l-2.759-0.099c-0.326-0.021-1-0.021-1.295-0.021v2.352
		c2.32,0.147,3.085,0.344,3.184,0.414c0.074,0.042,0.123,0.148,0.144,0.225c0.042,0.141,0.158,0.758,0.203,3.763
		c0.07,3.011,0.105,5.111,0.105,6.452c0,5.083-0.028,8.677-0.077,10.671c-0.028,0.863-0.074,1.615-0.144,2.247
		c-0.438,0.365-1.152,0.85-1.791,1.214v1.531c1.791-0.098,3.552-0.168,4.616-0.168l6.75,0.147h0.007
		c1.847,0,3.416-0.239,4.651-0.695c1.236-0.464,2.366-1.088,3.314-1.882c0.955-0.786,1.749-1.762,2.366-2.878
		c0.61-1.116,0.926-2.387,0.926-3.77c0-1.32-0.309-2.534-0.92-3.602C45.529,28.623,44.686,27.809,43.679,27.296 M32.783,19.637
		c0.014-1.172,0.05-2.169,0.106-3.04c0.628-0.063,1.309-0.098,2.057-0.098c1.145,0,1.997,0.133,2.559,0.393
		c0.547,0.26,0.986,0.688,1.316,1.299c0.344,0.632,0.516,1.404,0.516,2.295c0,0.899-0.158,1.706-0.46,2.38
		c-0.302,0.681-0.681,1.186-1.112,1.516s-1.021,0.569-1.742,0.716c-0.74,0.141-1.579,0.211-2.457,0.211l-0.828-0.021L32.783,19.637z
		 M38.739,38.185c-0.961,1.018-2.204,1.53-3.773,1.53c-0.989,0-1.716-0.035-2.169-0.099l-0.059-11.464
		c0.382-0.035,0.793-0.049,1.2-0.049c1.496,0,2.689,0.183,3.524,0.533c0.818,0.33,1.467,0.913,1.969,1.742
		c0.495,0.849,0.755,1.973,0.755,3.349C40.186,35.672,39.698,37.16,38.739,38.185"/>
	<path fill="#FFFFFF" d="M118.899,19.391c0.021-1.762,0.123-2.429,0.207-2.703c0.039-0.113,0.095-0.204,0.162-0.26
		c0.049-0.028,0.179-0.099,0.474-0.162c0.158-0.028,2.615-0.12,2.615-0.12v-2.478c0,0-4.904,0.154-7.287,0.154
		c-2.159,0-6.157-0.154-6.157-0.154v2.478c0,0,2.64,0.126,2.776,0.162c0.253,0.07,0.33,0.134,0.33,0.134
		c0.035,0.028,0.06,0.084,0.095,0.203c0.042,0.197,0.13,1.187,0.235,2.949c0.024,0.597,0.039,1.98,0.039,3.974v1.986
		c-1.088,0.084-3.395,0.126-6.859,0.126c-2.755,0-4.672-0.042-5.735-0.126v-1.986c0-2.528,0.056-4.5,0.186-5.876
		c0.056-1.004,0.158-1.208,0.158-1.215c0.035-0.035,0.123-0.105,0.358-0.168c0.21-0.042,1.042-0.105,2.467-0.162h0.33v-2.478
		c0,0-4.013,0.154-6.16,0.154c-2.395,0-4.732-0.049-6.947-0.14l-6.188,0.14c-0.48,0-2.229-0.056-4.714-0.154v2.366
		c1.523,0.112,2.696,0.204,2.794,0.231c0.186,0.042,0.309,0.126,0.396,0.218c0.063,0.091,0.109,0.246,0.109,0.442
		c0,0.168-0.018,0.352-0.052,0.541c-0.13,0.779-0.64,2.914-1.538,6.529L78.922,32l-2.019-4.984
		c-0.439-1.046-1.749-4.353-3.784-9.576c-0.46-1.172-1.032-2.703-1.544-4.1H69.24c-0.288,0.723-0.636,1.622-0.899,2.268
		l-3.201,7.631l-2.538,5.883c-0.544,1.327-0.962,2.324-1.25,3.012l-1.563-7.014c-0.207-1.003-0.551-2.766-1.084-5.56
		c-0.249-1.341-0.386-2.121-0.404-2.296c-0.028-0.175-0.028-0.337-0.028-0.478c0-0.211,0.038-0.358,0.129-0.435
		c0.074-0.078,0.239-0.168,0.597-0.218c0.094-0.014,0.986-0.049,2.271-0.084v-2.373l-6.923,0.147l-5.989-0.147v2.373
		c1.352,0.035,2.135,0.168,2.3,0.246c0.175,0.099,0.319,0.253,0.439,0.52c0.144,0.309,0.445,1.271,1.067,4.17l4.735,21.679h3.437
		l2.236-5.56c3.113-7.365,5.001-11.78,5.837-13.684l5.185,13.178l2.256,6.065h3.63c0.137-0.919,0.954-4.374,2.407-9.927
		c1.447-5.455,2.539-9.463,3.286-11.92c0.919-3.054,1.229-3.911,1.337-4.065c0.137-0.224,0.281-0.378,0.417-0.463
		c0.042-0.021,0.281-0.126,1.415-0.196c0.095-0.007,3.953,0.147,4.097,0.182c0.313,0.07,0.425,0.141,0.484,0.175
		c0.057,0.056,0.113,0.141,0.151,0.267c0.084,0.253,0.179,0.926,0.2,2.738l0.07,3.953v9.407l-0.07,4.009
		c-0.021,1.776-0.116,2.443-0.2,2.696c-0.039,0.119-0.095,0.204-0.165,0.252c-0.06,0.042-0.197,0.112-0.47,0.169
		c-0.158,0.021-2.622,0.126-2.622,0.126v2.478c2.215-0.091,4.917-0.161,7.312-0.161c2.147,0,4.472,0.07,6.16,0.161v-2.478
		c-1.783-0.063-2.646-0.134-2.791-0.168c-0.242-0.063-0.309-0.126-0.309-0.126c-0.049-0.042-0.084-0.119-0.108-0.189
		c-0.028-0.147-0.099-0.779-0.235-2.984c-0.035-0.568-0.056-1.902-0.056-3.973v-3.896c0.292-0.036,0.586-0.049,0.888-0.063
		c1.028-0.021,3.107-0.042,6.199-0.042c2.798,0,4.644,0.042,5.507,0.106v3.896c0,2.611-0.053,4.535-0.158,5.89
		c-0.074,0.997-0.168,1.208-0.168,1.208c-0.035,0.049-0.119,0.112-0.351,0.168c-0.222,0.05-2.798,0.176-2.798,0.176v2.478
		c0,0,3.998-0.161,6.157-0.161c2.383,0,7.287,0.161,7.287,0.161v-2.478c0,0-2.485-0.105-2.636-0.126
		c-0.288-0.057-0.403-0.127-0.453-0.155c-0.067-0.07-0.137-0.183-0.183-0.281c-0.07-0.246-0.165-0.913-0.186-2.745l-0.07-3.938
		V23.42L118.899,19.391z"/>
	<g>
		<defs>
			<path id="SVGID_1_" d="M26.331,66.042c-7.441,19.644-0.604,43.253,11.553,59.309c2.004,2.64,4.163,5.167,6.392,7.554
				c10.278-2.127,19.956-6.831,27.983-13.809c-3.637-3.167-6.971-6.831-9.867-10.967c-12.524-17.867-14.199-40.093-6.406-58.859
				c0.07-0.141,0.797-1.664,0.863-1.847C43.612,51.243,35.531,55.266,26.331,66.042"/>
		</defs>
		<clipPath id="SVGID_2_">
			<use xlink:href="#SVGID_1_"  overflow="visible"/>
		</clipPath>
		
			<linearGradient id="SVGID_3_" gradientUnits="userSpaceOnUse" x1="-164.2046" y1="450.0933" x2="-157.0158" y2="450.0933" gradientTransform="matrix(-4.9053 -8.4603 -8.4603 4.9053 3066.8967 -3474.3325)">
			<stop  offset="0" style="stop-color:#FFFFFE"/>
			<stop  offset="0.0307" style="stop-color:#FFFFFE"/>
			<stop  offset="0.2515" style="stop-color:#FFFFFE"/>
			<stop  offset="0.3369" style="stop-color:#FBFCFD"/>
			<stop  offset="0.4244" style="stop-color:#EFF2F8"/>
			<stop  offset="0.5129" style="stop-color:#DAE3F1"/>
			<stop  offset="0.6021" style="stop-color:#BDCDE7"/>
			<stop  offset="0.6919" style="stop-color:#98B0DB"/>
			<stop  offset="0.7821" style="stop-color:#6B8ECB"/>
			<stop  offset="0.871" style="stop-color:#3666B9"/>
			<stop  offset="0.9509" style="stop-color:#003DA6"/>
			<stop  offset="1" style="stop-color:#003DA6"/>
		</linearGradient>
		<polygon clip-path="url(#SVGID_2_)" fill="url(#SVGID_3_)" points="32.316,156.058 -18.2,68.928 58.833,24.263 109.352,111.394 		
			"/>
	</g>
	<g>
		<defs>
			<path id="SVGID_4_" d="M64.157,51.692c-3.313,0.407-6.553,1.018-9.748,1.776c-3.321,9.97-4.055,20.69-2.026,31.108
				c4.55-1.544,9.404-2.611,14.42-3.054c21.739-1.902,41.81,7.778,54.163,23.884c0.137,0.147,1.078,1.516,1.193,1.699
				c3.307-13.354,3.865-22.389-0.87-35.734c-11.346-13.894-30.381-20.226-48.154-20.226C70.089,51.145,67.085,51.32,64.157,51.692"
				/>
		</defs>
		<clipPath id="SVGID_5_">
			<use xlink:href="#SVGID_4_"  overflow="visible"/>
		</clipPath>
		
			<linearGradient id="SVGID_6_" gradientUnits="userSpaceOnUse" x1="-161.8491" y1="521.7515" x2="-154.6588" y2="521.7515" gradientTransform="matrix(9.7798 -0.019 -0.019 -9.7798 1645.7603 5178.7476)">
			<stop  offset="0" style="stop-color:#FFFFFE"/>
			<stop  offset="0.0307" style="stop-color:#FFFFFE"/>
			<stop  offset="0.2515" style="stop-color:#FFFFFE"/>
			<stop  offset="0.3369" style="stop-color:#FBFCFD"/>
			<stop  offset="0.4244" style="stop-color:#EFF2F8"/>
			<stop  offset="0.5129" style="stop-color:#DAE3F1"/>
			<stop  offset="0.6021" style="stop-color:#BDCDE7"/>
			<stop  offset="0.6919" style="stop-color:#98B0DB"/>
			<stop  offset="0.7821" style="stop-color:#6B8ECB"/>
			<stop  offset="0.871" style="stop-color:#3666B9"/>
			<stop  offset="0.9509" style="stop-color:#003DA6"/>
			<stop  offset="1" style="stop-color:#003DA6"/>
		</linearGradient>
		<polygon clip-path="url(#SVGID_5_)" fill="url(#SVGID_6_)" points="50.247,51.145 126.025,50.997 126.134,107.105 50.355,107.251 
					"/>
	</g>
	<g>
		<defs>
			<path id="SVGID_7_" d="M87.638,98.673c-9.201,19.776-27.605,32.315-47.75,34.954c-0.2,0.036-1.861,0.162-2.078,0.177
				c9.938,9.567,17.47,14.538,31.396,17.144c20.749-3.391,37.763-21.125,45.601-39.68c1.285-3.068,2.394-6.144,3.335-9.289
				c-6.954-7.841-15.895-13.872-25.937-17.347C91.274,89.371,89.778,94.089,87.638,98.673"/>
		</defs>
		<clipPath id="SVGID_8_">
			<use xlink:href="#SVGID_7_"  overflow="visible"/>
		</clipPath>
		
			<linearGradient id="SVGID_9_" gradientUnits="userSpaceOnUse" x1="-225.3726" y1="487.689" x2="-218.1832" y2="487.689" gradientTransform="matrix(-4.8731 8.4777 8.4777 4.8731 -5137.2661 -378.5991)">
			<stop  offset="0" style="stop-color:#FFFFFE"/>
			<stop  offset="0.0307" style="stop-color:#FFFFFE"/>
			<stop  offset="0.2515" style="stop-color:#FFFFFE"/>
			<stop  offset="0.3369" style="stop-color:#FBFCFD"/>
			<stop  offset="0.4244" style="stop-color:#EFF2F8"/>
			<stop  offset="0.5129" style="stop-color:#DAE3F1"/>
			<stop  offset="0.6021" style="stop-color:#BDCDE7"/>
			<stop  offset="0.6919" style="stop-color:#98B0DB"/>
			<stop  offset="0.7821" style="stop-color:#6B8ECB"/>
			<stop  offset="0.871" style="stop-color:#3666B9"/>
			<stop  offset="0.9509" style="stop-color:#003DA6"/>
			<stop  offset="1" style="stop-color:#003DA6"/>
		</linearGradient>
		<polygon clip-path="url(#SVGID_8_)" fill="url(#SVGID_9_)" points="146.792,101.102 98.189,185.649 9.162,134.478 57.762,49.93 		
			"/>
	</g>
</g>
</svg>
